<svg width="46" height="43" fill="none" xmlns="http://www.w3.org/2000/svg"><path d="M9.857 21.5v-8.078a11.407 11.407 0 0 1 1.061-4.612 12.09 12.09 0 0 1 2.872-3.88 13.046 13.046 0 0 1 4.243-2.555A13.715 13.715 0 0 1 23 1.535v0a13.715 13.715 0 0 1 4.967.84c1.58.582 3.022 1.45 4.243 2.554a12.09 12.09 0 0 1 2.872 3.88 11.407 11.407 0 0 1 1.06 4.613V21.5" stroke="#000001" stroke-linecap="round" stroke-linejoin="round"/><path d="M4.929 16.893h3.285c.436 0 .854.162 1.162.45.308.288.481.678.481 1.086v9.214c0 .407-.173.798-.481 1.086-.308.288-.726.45-1.162.45H4.93a3.406 3.406 0 0 1-2.324-.9 2.974 2.974 0 0 1-.962-2.172v-6.143c0-.814.346-1.595.962-2.171a3.406 3.406 0 0 1 2.324-.9v0zM41.071 29.179h-3.285c-.436 0-.854-.162-1.162-.45a1.487 1.487 0 0 1-.481-1.086v-9.214c0-.408.173-.798.481-1.086.308-.288.726-.45 1.162-.45h3.285c.872 0 1.708.323 2.324.9.616.576.962 1.357.962 2.171v6.143c0 .815-.346 1.596-.962 2.172-.616.576-1.452.9-2.324.9v0zM29.571 37.625c1.743 0 3.415-.647 4.647-1.8 1.232-1.151 1.925-2.714 1.925-4.343v-6.91" stroke="#000001" stroke-linecap="round" stroke-linejoin="round"/><path d="M29.571 37.625a3.717 3.717 0 0 1-1.203 2.715 4.257 4.257 0 0 1-2.904 1.124h-4.928a4.257 4.257 0 0 1-2.905-1.124 3.717 3.717 0 0 1-1.202-2.715c0-1.018.432-1.995 1.203-2.715a4.257 4.257 0 0 1 2.904-1.124h4.928c1.09 0 2.134.404 2.905 1.124a3.717 3.717 0 0 1 1.202 2.715z" stroke="#000001" stroke-linecap="round" stroke-linejoin="round"/></svg>