<svg width="14" height="14" fill="none" xmlns="http://www.w3.org/2000/svg"><g clip-path="url(#a)" stroke="#000" stroke-linecap="round" stroke-linejoin="round"><path d="M8.5 11.27c-.482.146-.984.23-1.5.23-2.79 0-5.18-2.475-6.23-3.746A1.208 1.208 0 0 1 .512 7c0-.278.092-.547.258-.754.333-.402.8-.926 1.372-1.454m1.487-1.168C4.622 2.98 5.772 2.5 7 2.5c2.79 0 5.18 2.475 6.23 3.746.166.207.258.476.258.754 0 .279-.092.547-.258.754-.579.7-1.565 1.767-2.8 2.583l-6.8-6.713z"/><path d="M8.414 8.414a2 2 0 0 0-2.828-2.828M13.5 13.5.5.5"/></g><defs><clipPath id="a"><path fill="#fff" d="M0 0h14v14H0z"/></clipPath></defs></svg>