<svg width="48" height="48" fill="none" xmlns="http://www.w3.org/2000/svg"><path d="M24 19.636v9.295h12.916c-.567 2.989-2.27 5.52-4.822 7.222l7.789 6.043c4.538-4.189 7.156-10.341 7.156-17.65a27.57 27.57 0 0 0-.436-4.91H23.999z" fill="#4285F4"/><path d="m10.55 28.568-1.758 1.345-6.218 4.843C6.524 42.59 14.617 48 24 48c6.48 0 11.912-2.138 15.884-5.803l-7.79-6.044c-2.138 1.44-4.865 2.313-8.094 2.313-6.24 0-11.542-4.211-13.44-9.884l-.01-.014z" fill="#34A853"/><path d="M2.574 13.244A23.704 23.704 0 0 0 0 24c0 3.883.938 7.527 2.574 10.756 0 .022 7.986-6.196 7.986-6.196A14.384 14.384 0 0 1 9.796 24c0-1.593.284-3.12.764-4.56l-7.986-6.196z" fill="#FBBC05"/><path d="M24 9.556c3.534 0 6.676 1.222 9.185 3.579l6.873-6.873C35.89 2.378 30.48 0 24 0 14.618 0 6.523 5.39 2.574 13.244l7.986 6.196c1.898-5.673 7.2-9.884 13.44-9.884z" fill="#EA4335"/></svg>