<svg width="38" height="38" fill="none" xmlns="http://www.w3.org/2000/svg"><g clip-path="url(#a)"><path d="M35.195 0H2.805A2.805 2.805 0 0 0 0 2.805v32.39A2.805 2.805 0 0 0 2.805 38h32.39A2.805 2.805 0 0 0 38 35.195V2.805A2.805 2.805 0 0 0 35.195 0zM11.326 32.371H5.613V14.224h5.713V32.37zM8.466 11.71a3.28 3.28 0 1 1 3.298-3.278 3.232 3.232 0 0 1-3.298 3.278zm23.918 20.678h-5.71v-9.914c0-2.924-1.243-3.827-2.848-3.827-1.694 0-3.356 1.278-3.356 3.9v9.841h-5.713v-18.15h5.494v2.515h.074c.551-1.117 2.483-3.024 5.43-3.024 3.188 0 6.632 1.892 6.632 7.433l-.003 11.226z" fill="#0A66C2"/></g><defs><clipPath id="a"><path fill="#fff" d="M0 0h38v38H0z"/></clipPath></defs></svg>