<svg width="36" height="40" fill="none" xmlns="http://www.w3.org/2000/svg"><path fill-rule="evenodd" clip-rule="evenodd" d="M5.562 10.354A11 11 0 0 1 16.543 0h2.914a11 11 0 0 1 10.98 10.354l.558 9.47a3 3 0 1 1-5.99.352l-.557-9.47A5 5 0 0 0 19.457 6h-2.914a5 5 0 0 0-4.991 4.706l-.557 9.47a3 3 0 0 1-5.99-.352l.557-9.47z" fill="#1575E5"/><path d="M.36 19.69c.195-1.73 1.467-2.934 3.2-3.125C5.992 16.295 10.394 16 18 16c7.815 0 12.203.312 14.554.587 1.58.185 2.766 1.256 2.99 2.832C35.777 21.074 36 23.76 36 28c0 4.24-.222 6.926-.457 8.581-.223 1.576-1.409 2.647-2.99 2.832-2.35.275-6.738.587-14.553.587s-12.203-.312-14.554-.587c-1.58-.185-2.766-1.256-2.99-2.832C.223 34.926 0 32.24 0 28c0-4.015.17-6.637.36-8.31z" fill="#A6CFFF"/><path fill-rule="evenodd" clip-rule="evenodd" d="M19.938 29.5a4 4 0 1 0-3.875 0l-.488 3.9c-.049.39.02.802.337 1.038.362.269 1.005.562 2.088.562 1.083 0 1.726-.293 2.088-.562.317-.236.386-.647.337-1.039l-.488-3.899z" fill="#1575E5"/></svg>