<svg width="263" height="50" viewBox="0 0 263 50" fill="none" xmlns="http://www.w3.org/2000/svg">
<path d="M0.724432 49V1.72727H16.6974C20.3906 1.72727 23.4221 2.35819 25.7919 3.62003C28.1617 4.86647 29.916 6.58227 31.0547 8.7674C32.1934 10.9525 32.7628 13.4377 32.7628 16.223C32.7628 19.0083 32.1934 21.4781 31.0547 23.6325C29.916 25.7868 28.1694 27.4795 25.815 28.7106C23.4606 29.9263 20.4522 30.5341 16.7898 30.5341H3.86364V25.3636H16.6051C19.1288 25.3636 21.16 24.9943 22.6989 24.2557C24.2531 23.517 25.3764 22.4706 26.0689 21.1165C26.7768 19.7469 27.1307 18.1158 27.1307 16.223C27.1307 14.3303 26.7768 12.676 26.0689 11.2603C25.361 9.84458 24.23 8.75201 22.6758 7.9826C21.1216 7.1978 19.0672 6.8054 16.5128 6.8054H6.44886V49H0.724432ZM22.9759 27.7642L34.6094 49H27.9617L16.5128 27.7642H22.9759ZM56.0471 49.7386C52.6309 49.7386 49.6841 48.9846 47.2066 47.4766C44.7445 45.9531 42.844 43.8295 41.5052 41.1058C40.1818 38.3667 39.5202 35.1813 39.5202 31.5497C39.5202 27.9181 40.1818 24.7173 41.5052 21.9474C42.844 19.1622 44.706 16.9924 47.0912 15.4382C49.4917 13.8686 52.2924 13.0838 55.4932 13.0838C57.3398 13.0838 59.1633 13.3916 60.9637 14.0071C62.7641 14.6226 64.403 15.6229 65.8802 17.0078C67.3575 18.3774 68.5347 20.1932 69.4118 22.4553C70.289 24.7173 70.7275 27.5026 70.7275 30.8111V33.1193H43.398V28.4105H65.1878C65.1878 26.41 64.7877 24.625 63.9875 23.0554C63.2027 21.4858 62.0793 20.247 60.6175 19.3391C59.171 18.4312 57.4629 17.9773 55.4932 17.9773C53.3234 17.9773 51.4461 18.5159 49.8611 19.593C48.2915 20.6548 47.0835 22.0398 46.2371 23.7479C45.3908 25.456 44.9676 27.2872 44.9676 29.2415V32.3807C44.9676 35.0582 45.4292 37.328 46.3525 39.19C47.2912 41.0366 48.5915 42.4446 50.2535 43.4141C51.9154 44.3681 53.8466 44.8452 56.0471 44.8452C57.4783 44.8452 58.7709 44.6451 59.925 44.245C61.0945 43.8295 62.1024 43.214 62.9488 42.3984C63.7951 41.5675 64.4491 40.5365 64.9108 39.3054L70.1736 40.7827C69.6196 42.5677 68.6886 44.1373 67.3806 45.4915C66.0726 46.8303 64.4568 47.8767 62.5333 48.6307C60.6098 49.3693 58.4477 49.7386 56.0471 49.7386ZM106.926 13.5455L93.8157 49H88.2759L75.1651 13.5455H81.0742L90.8612 41.7983H91.2305L101.017 13.5455H106.926ZM144.407 49.7386C140.99 49.7386 138.043 48.9846 135.566 47.4766C133.104 45.9531 131.203 43.8295 129.865 41.1058C128.541 38.3667 127.88 35.1813 127.88 31.5497C127.88 27.9181 128.541 24.7173 129.865 21.9474C131.203 19.1622 133.065 16.9924 135.451 15.4382C137.851 13.8686 140.652 13.0838 143.853 13.0838C145.699 13.0838 147.523 13.3916 149.323 14.0071C151.123 14.6226 152.762 15.6229 154.24 17.0078C155.717 18.3774 156.894 20.1932 157.771 22.4553C158.648 24.7173 159.087 27.5026 159.087 30.8111V33.1193H131.757V28.4105H153.547C153.547 26.41 153.147 24.625 152.347 23.0554C151.562 21.4858 150.439 20.247 148.977 19.3391C147.53 18.4312 145.822 17.9773 143.853 17.9773C141.683 17.9773 139.805 18.5159 138.22 19.593C136.651 20.6548 135.443 22.0398 134.597 23.7479C133.75 25.456 133.327 27.2872 133.327 29.2415V32.3807C133.327 35.0582 133.789 37.328 134.712 39.19C135.651 41.0366 136.951 42.4446 138.613 43.4141C140.275 44.3681 142.206 44.8452 144.407 44.8452C145.838 44.8452 147.13 44.6451 148.284 44.245C149.454 43.8295 150.462 43.214 151.308 42.3984C152.155 41.5675 152.809 40.5365 153.27 39.3054L158.533 40.7827C157.979 42.5677 157.048 44.1373 155.74 45.4915C154.432 46.8303 152.816 47.8767 150.893 48.6307C148.969 49.3693 146.807 49.7386 144.407 49.7386ZM175.406 49L164.604 13.5455H170.328L177.991 40.6903H178.361L185.932 13.5455H191.748L199.227 40.598H199.597L207.26 13.5455H212.984L202.182 49H196.827L189.071 21.7628H188.517L180.761 49H175.406ZM245.3 21.4858L240.406 22.8707C240.098 22.0552 239.644 21.2627 239.044 20.4933C238.46 19.7085 237.659 19.0621 236.644 18.5543C235.628 18.0465 234.328 17.7926 232.743 17.7926C230.573 17.7926 228.765 18.2927 227.318 19.293C225.887 20.2778 225.172 21.532 225.172 23.0554C225.172 24.4096 225.664 25.479 226.649 26.2638C227.634 27.0486 229.173 27.7027 231.266 28.2259L236.528 29.5185C239.698 30.2879 242.06 31.4651 243.615 33.0501C245.169 34.6197 245.946 36.6432 245.946 39.1207C245.946 41.152 245.361 42.9678 244.192 44.5682C243.038 46.1686 241.422 47.4304 239.344 48.3537C237.267 49.277 234.851 49.7386 232.097 49.7386C228.48 49.7386 225.487 48.9538 223.117 47.3842C220.748 45.8146 219.247 43.5218 218.616 40.5057L223.787 39.2131C224.279 41.1212 225.21 42.5523 226.58 43.5064C227.965 44.4605 229.773 44.9375 232.004 44.9375C234.543 44.9375 236.559 44.3989 238.052 43.3217C239.56 42.2292 240.314 40.9212 240.314 39.3977C240.314 38.1667 239.883 37.1357 239.021 36.3047C238.159 35.4583 236.836 34.8274 235.051 34.4119L229.142 33.027C225.895 32.2576 223.51 31.065 221.986 29.4492C220.478 27.8181 219.724 25.7791 219.724 23.3324C219.724 21.3319 220.286 19.5623 221.409 18.0234C222.548 16.4846 224.095 15.2766 226.049 14.3995C228.019 13.5224 230.25 13.0838 232.743 13.0838C236.251 13.0838 239.006 13.8532 241.006 15.392C243.022 16.9309 244.453 18.9621 245.3 21.4858Z" fill="white"/>
<path d="M114.117 49V13.5455H119.564V49H114.117ZM116.887 7.63636C115.825 7.63636 114.909 7.27474 114.14 6.55149C113.386 5.82824 113.009 4.95881 113.009 3.94318C113.009 2.92756 113.386 2.05812 114.14 1.33487C114.909 0.611623 115.825 0.25 116.887 0.25C117.948 0.25 118.856 0.611623 119.61 1.33487C120.38 2.05812 120.764 2.92756 120.764 3.94318C120.764 4.95881 120.38 5.82824 119.61 6.55149C118.856 7.27474 117.948 7.63636 116.887 7.63636Z" fill="#2836B6"/>
<path d="M258.116 49.3693C256.977 49.3693 256 48.9615 255.185 48.146C254.369 47.3304 253.961 46.3532 253.961 45.2145C253.961 44.0758 254.369 43.0986 255.185 42.283C256 41.4674 256.977 41.0597 258.116 41.0597C259.255 41.0597 260.232 41.4674 261.048 42.283C261.863 43.0986 262.271 44.0758 262.271 45.2145C262.271 45.9685 262.079 46.661 261.694 47.2919C261.325 47.9228 260.824 48.4306 260.194 48.8153C259.578 49.1847 258.886 49.3693 258.116 49.3693Z" fill="#1F1CC2"/>
</svg>
