<svg width="263" height="50" fill="none" xmlns="http://www.w3.org/2000/svg"><path d="M.724 49V1.727h15.973c3.694 0 6.725.631 9.095 1.893 2.37 1.246 4.124 2.962 5.263 5.147 1.138 2.186 1.708 4.67 1.708 7.456 0 2.785-.57 5.255-1.708 7.41-1.139 2.154-2.886 3.847-5.24 5.078-2.354 1.215-5.363 1.823-9.025 1.823H3.864v-5.17h12.741c2.524 0 4.555-.37 6.094-1.108 1.554-.739 2.677-1.785 3.37-3.14.708-1.37 1.062-3 1.062-4.893 0-1.893-.354-3.547-1.062-4.963-.708-1.415-1.839-2.508-3.393-3.277-1.554-.785-3.609-1.178-6.163-1.178H6.449V49H.724zm22.252-21.236L34.609 49h-6.647l-11.45-21.236h6.464zM56.047 49.74c-3.416 0-6.363-.754-8.84-2.262-2.462-1.524-4.363-3.647-5.702-6.371-1.323-2.74-1.985-5.925-1.985-9.556 0-3.632.662-6.833 1.985-9.603 1.339-2.785 3.201-4.955 5.586-6.509 2.4-1.57 5.201-2.354 8.402-2.354 1.847 0 3.67.308 5.47.923 1.801.616 3.44 1.616 4.917 3 1.478 1.37 2.655 3.186 3.532 5.448.877 2.262 1.316 5.048 1.316 8.356v2.308h-27.33V28.41h21.79c0-2-.4-3.785-1.2-5.355-.785-1.57-1.909-2.808-3.37-3.716-1.447-.908-3.155-1.362-5.125-1.362-2.17 0-4.047.539-5.632 1.616a10.63 10.63 0 0 0-3.624 4.155 12.207 12.207 0 0 0-1.27 5.493v3.14c0 2.677.462 4.947 1.386 6.809.938 1.847 2.239 3.255 3.9 4.224 1.662.954 3.594 1.431 5.794 1.431 1.431 0 2.724-.2 3.878-.6a8.301 8.301 0 0 0 3.024-1.847c.846-.83 1.5-1.862 1.962-3.093l5.263 1.478a11.67 11.67 0 0 1-2.793 4.709c-1.308 1.338-2.924 2.385-4.848 3.139-1.923.738-4.085 1.108-6.486 1.108zm50.879-36.194L93.816 49h-5.54l-13.11-35.454h5.908l9.787 28.252h.37l9.786-28.253h5.909zm37.481 36.194c-3.417 0-6.364-.754-8.841-2.262-2.462-1.524-4.363-3.647-5.701-6.371-1.324-2.74-1.985-5.925-1.985-9.556 0-3.632.661-6.833 1.985-9.603 1.338-2.785 3.2-4.955 5.586-6.509 2.4-1.57 5.201-2.354 8.402-2.354 1.846 0 3.67.308 5.47.923 1.8.616 3.439 1.616 4.917 3 1.477 1.37 2.654 3.186 3.531 5.448.877 2.262 1.316 5.048 1.316 8.356v2.308h-27.33V28.41h21.79c0-2-.4-3.785-1.2-5.355-.785-1.57-1.908-2.808-3.37-3.716-1.447-.908-3.155-1.362-5.124-1.362-2.17 0-4.048.539-5.633 1.616a10.628 10.628 0 0 0-3.623 4.155 12.198 12.198 0 0 0-1.27 5.493v3.14c0 2.677.462 4.947 1.385 6.809.939 1.847 2.239 3.255 3.901 4.224 1.662.954 3.593 1.431 5.794 1.431 1.431 0 2.723-.2 3.877-.6a8.294 8.294 0 0 0 3.024-1.847c.847-.83 1.501-1.862 1.962-3.093l5.263 1.478a11.67 11.67 0 0 1-2.793 4.709c-1.308 1.338-2.924 2.385-4.847 3.139-1.924.738-4.086 1.108-6.486 1.108zM175.406 49l-10.802-35.454h5.724l7.663 27.144h.37l7.571-27.144h5.816l7.479 27.052h.37l7.663-27.052h5.724L202.182 49h-5.355l-7.756-27.237h-.554L180.761 49h-5.355zM245.3 21.486l-4.894 1.385a9.102 9.102 0 0 0-1.362-2.378c-.584-.784-1.385-1.43-2.4-1.939-1.016-.507-2.316-.761-3.901-.761-2.17 0-3.978.5-5.425 1.5-1.431.985-2.146 2.239-2.146 3.762 0 1.355.492 2.424 1.477 3.209.985.785 2.524 1.439 4.617 1.962l5.262 1.293c3.17.769 5.532 1.946 7.087 3.531 1.554 1.57 2.331 3.593 2.331 6.07 0 2.032-.585 3.848-1.754 5.448-1.154 1.6-2.77 2.862-4.848 3.786-2.077.923-4.493 1.385-7.247 1.385-3.617 0-6.61-.785-8.98-2.355-2.369-1.57-3.87-3.862-4.501-6.878l5.171-1.293c.492 1.908 1.423 3.34 2.793 4.293 1.385.955 3.193 1.431 5.424 1.431 2.539 0 4.555-.538 6.048-1.615 1.508-1.093 2.262-2.4 2.262-3.924 0-1.231-.431-2.262-1.293-3.093-.862-.847-2.185-1.478-3.97-1.893l-5.909-1.385c-3.247-.77-5.632-1.962-7.156-3.578-1.508-1.63-2.262-3.67-2.262-6.117 0-2 .562-3.77 1.685-5.309 1.139-1.538 2.686-2.746 4.64-3.623 1.97-.878 4.201-1.316 6.694-1.316 3.508 0 6.263.77 8.263 2.308 2.016 1.539 3.447 3.57 4.294 6.094z" fill="#000"/><path d="M114.117 49V13.546h5.447V49h-5.447zm2.77-41.364a3.873 3.873 0 0 1-2.747-1.085c-.754-.723-1.131-1.592-1.131-2.608 0-1.015.377-1.885 1.131-2.608A3.873 3.873 0 0 1 116.887.25c1.061 0 1.969.362 2.723 1.085.77.723 1.154 1.593 1.154 2.608 0 1.016-.384 1.885-1.154 2.608-.754.724-1.662 1.085-2.723 1.085z" fill="#2836B6"/><path d="M258.116 49.37c-1.139 0-2.116-.408-2.931-1.224-.816-.816-1.224-1.793-1.224-2.931 0-1.14.408-2.116 1.224-2.932.815-.816 1.792-1.223 2.931-1.223s2.116.407 2.932 1.223c.815.816 1.223 1.793 1.223 2.931 0 .755-.192 1.447-.577 2.078a4.315 4.315 0 0 1-1.5 1.523c-.616.37-1.308.554-2.078.554z" fill="#1F1CC2"/></svg>