<svg width="14" height="14" fill="none" xmlns="http://www.w3.org/2000/svg"><g clip-path="url(#a)" stroke="#000001" stroke-linecap="round" stroke-linejoin="round"><path d="M2 3.5a1.5 1.5 0 1 0 0-3 1.5 1.5 0 0 0 0 3zM2 8.5a1.5 1.5 0 1 0 0-3 1.5 1.5 0 0 0 0 3zM7 3.5a1.5 1.5 0 1 0 0-3 1.5 1.5 0 0 0 0 3zM7 8.5a1.5 1.5 0 1 0 0-3 1.5 1.5 0 0 0 0 3zM7 13.5a1.5 1.5 0 1 0 0-3 1.5 1.5 0 0 0 0 3zM12 3.5a1.5 1.5 0 1 0 0-3 1.5 1.5 0 0 0 0 3zM12 8.5a1.5 1.5 0 1 0 0-3 1.5 1.5 0 0 0 0 3z"/></g><defs><clipPath id="a"><path fill="#fff" d="M0 0h14v14H0z"/></clipPath></defs></svg>