<svg width="116" height="20" viewBox="0 0 116 20" fill="none" xmlns="http://www.w3.org/2000/svg">
<g clip-path="url(#clip0_2_151)">
<path d="M10.7 1.55716L12.9714 6.14287C13.0231 6.25926 13.1044 6.36008 13.2071 6.43528C13.3099 6.51048 13.4306 6.55742 13.5571 6.57144L18.5714 7.3143C18.7166 7.33296 18.8535 7.39255 18.9661 7.48609C19.0787 7.57964 19.1623 7.70329 19.2073 7.8426C19.2522 7.98192 19.2566 8.13114 19.2199 8.27284C19.1832 8.41455 19.1069 8.54289 19 8.64287L15.3857 12.2286C15.2935 12.3148 15.2242 12.4226 15.1843 12.5424C15.1444 12.6622 15.1351 12.79 15.1571 12.9143L16.0286 17.9572C16.0538 18.1021 16.0379 18.2511 15.9825 18.3874C15.9272 18.5237 15.8348 18.6417 15.7157 18.7281C15.5966 18.8144 15.4557 18.8656 15.309 18.8758C15.1622 18.886 15.0156 18.8548 14.8857 18.7857L10.3714 16.4C10.2558 16.3433 10.1288 16.3138 10 16.3138C9.87123 16.3138 9.74417 16.3433 9.62857 16.4L5.11429 18.7857C4.98441 18.8548 4.83777 18.886 4.69104 18.8758C4.54431 18.8656 4.40339 18.8144 4.28431 18.7281C4.16523 18.6417 4.07277 18.5237 4.01746 18.3874C3.96215 18.2511 3.9462 18.1021 3.97143 17.9572L4.84286 12.8572C4.86495 12.7329 4.8556 12.605 4.81568 12.4853C4.77576 12.3655 4.70653 12.2576 4.61429 12.1714L0.957147 8.64287C0.84895 8.54015 0.772861 8.40826 0.738095 8.26318C0.70333 8.1181 0.71138 7.96604 0.761271 7.82544C0.811162 7.68484 0.900752 7.56172 1.01919 7.471C1.13763 7.38028 1.27983 7.32585 1.42858 7.3143L6.44286 6.57144C6.56943 6.55742 6.69011 6.51048 6.79288 6.43528C6.89565 6.36008 6.97691 6.25926 7.02858 6.14287L9.3 1.55716C9.36186 1.4236 9.46063 1.31052 9.58467 1.23128C9.7087 1.15203 9.85282 1.10992 10 1.10992C10.1472 1.10992 10.2913 1.15203 10.4153 1.23128C10.5394 1.31052 10.6381 1.4236 10.7 1.55716Z" fill="#F8FD0B" stroke="#F8FD0B" stroke-linecap="round" stroke-linejoin="round"/>
</g>
<g clip-path="url(#clip1_2_151)">
<path d="M34.7 1.55716L36.9714 6.14287C37.0231 6.25926 37.1044 6.36008 37.2071 6.43528C37.3099 6.51048 37.4306 6.55742 37.5571 6.57144L42.5714 7.3143C42.7166 7.33296 42.8535 7.39255 42.9661 7.48609C43.0787 7.57964 43.1623 7.70329 43.2073 7.8426C43.2522 7.98192 43.2566 8.13114 43.2199 8.27284C43.1832 8.41455 43.1069 8.54289 43 8.64287L39.3857 12.2286C39.2935 12.3148 39.2242 12.4226 39.1843 12.5424C39.1444 12.6622 39.1351 12.79 39.1571 12.9143L40.0286 17.9572C40.0538 18.1021 40.0379 18.2511 39.9825 18.3874C39.9272 18.5237 39.8348 18.6417 39.7157 18.7281C39.5966 18.8144 39.4557 18.8656 39.309 18.8758C39.1622 18.886 39.0156 18.8548 38.8857 18.7857L34.3714 16.4C34.2558 16.3433 34.1288 16.3138 34 16.3138C33.8712 16.3138 33.7442 16.3433 33.6286 16.4L29.1143 18.7857C28.9844 18.8548 28.8378 18.886 28.691 18.8758C28.5443 18.8656 28.4034 18.8144 28.2843 18.7281C28.1652 18.6417 28.0728 18.5237 28.0175 18.3874C27.9621 18.2511 27.9462 18.1021 27.9714 17.9572L28.8429 12.8572C28.8649 12.7329 28.8556 12.605 28.8157 12.4853C28.7758 12.3655 28.7065 12.2576 28.6143 12.1714L24.9571 8.64287C24.849 8.54015 24.7729 8.40826 24.7381 8.26318C24.7033 8.1181 24.7114 7.96604 24.7613 7.82544C24.8112 7.68484 24.9008 7.56172 25.0192 7.471C25.1376 7.38028 25.2798 7.32585 25.4286 7.3143L30.4429 6.57144C30.5694 6.55742 30.6901 6.51048 30.7929 6.43528C30.8956 6.36008 30.9769 6.25926 31.0286 6.14287L33.3 1.55716C33.3619 1.4236 33.4606 1.31052 33.5847 1.23128C33.7087 1.15203 33.8528 1.10992 34 1.10992C34.1472 1.10992 34.2913 1.15203 34.4153 1.23128C34.5394 1.31052 34.6381 1.4236 34.7 1.55716Z" fill="#F8FD0B" stroke="#F8FD0B" stroke-linecap="round" stroke-linejoin="round"/>
</g>
<g clip-path="url(#clip2_2_151)">
<path d="M58.7 1.55716L60.9714 6.14287C61.0231 6.25926 61.1044 6.36008 61.2071 6.43528C61.3099 6.51048 61.4306 6.55742 61.5571 6.57144L66.5714 7.3143C66.7166 7.33296 66.8535 7.39255 66.9661 7.48609C67.0787 7.57964 67.1623 7.70329 67.2073 7.8426C67.2522 7.98192 67.2566 8.13114 67.2199 8.27284C67.1832 8.41455 67.1069 8.54289 67 8.64287L63.3857 12.2286C63.2935 12.3148 63.2242 12.4226 63.1843 12.5424C63.1444 12.6622 63.1351 12.79 63.1571 12.9143L64.0286 17.9572C64.0538 18.1021 64.0379 18.2511 63.9825 18.3874C63.9272 18.5237 63.8348 18.6417 63.7157 18.7281C63.5966 18.8144 63.4557 18.8656 63.309 18.8758C63.1622 18.886 63.0156 18.8548 62.8857 18.7857L58.3714 16.4C58.2558 16.3433 58.1288 16.3138 58 16.3138C57.8712 16.3138 57.7442 16.3433 57.6286 16.4L53.1143 18.7857C52.9844 18.8548 52.8378 18.886 52.691 18.8758C52.5443 18.8656 52.4034 18.8144 52.2843 18.7281C52.1652 18.6417 52.0728 18.5237 52.0175 18.3874C51.9621 18.2511 51.9462 18.1021 51.9714 17.9572L52.8429 12.8572C52.8649 12.7329 52.8556 12.605 52.8157 12.4853C52.7758 12.3655 52.7065 12.2576 52.6143 12.1714L48.9571 8.64287C48.849 8.54015 48.7729 8.40826 48.7381 8.26318C48.7033 8.1181 48.7114 7.96604 48.7613 7.82544C48.8112 7.68484 48.9008 7.56172 49.0192 7.471C49.1376 7.38028 49.2798 7.32585 49.4286 7.3143L54.4429 6.57144C54.5694 6.55742 54.6901 6.51048 54.7929 6.43528C54.8956 6.36008 54.9769 6.25926 55.0286 6.14287L57.3 1.55716C57.3619 1.4236 57.4606 1.31052 57.5847 1.23128C57.7087 1.15203 57.8528 1.10992 58 1.10992C58.1472 1.10992 58.2913 1.15203 58.4153 1.23128C58.5394 1.31052 58.6381 1.4236 58.7 1.55716Z" fill="#F8FD0B" stroke="#F8FD0B" stroke-linecap="round" stroke-linejoin="round"/>
</g>
<g clip-path="url(#clip3_2_151)">
<path d="M82.7 1.55716L84.9714 6.14287C85.0231 6.25926 85.1044 6.36008 85.2071 6.43528C85.3099 6.51048 85.4306 6.55742 85.5571 6.57144L90.5714 7.3143C90.7166 7.33296 90.8535 7.39255 90.9661 7.48609C91.0787 7.57964 91.1623 7.70329 91.2073 7.8426C91.2522 7.98192 91.2566 8.13114 91.2199 8.27284C91.1832 8.41455 91.1069 8.54289 91 8.64287L87.3857 12.2286C87.2935 12.3148 87.2242 12.4226 87.1843 12.5424C87.1444 12.6622 87.1351 12.79 87.1571 12.9143L88.0286 17.9572C88.0538 18.1021 88.0379 18.2511 87.9825 18.3874C87.9272 18.5237 87.8348 18.6417 87.7157 18.7281C87.5966 18.8144 87.4557 18.8656 87.309 18.8758C87.1622 18.886 87.0156 18.8548 86.8857 18.7857L82.3714 16.4C82.2558 16.3433 82.1288 16.3138 82 16.3138C81.8712 16.3138 81.7442 16.3433 81.6286 16.4L77.1143 18.7857C76.9844 18.8548 76.8378 18.886 76.691 18.8758C76.5443 18.8656 76.4034 18.8144 76.2843 18.7281C76.1652 18.6417 76.0728 18.5237 76.0175 18.3874C75.9621 18.2511 75.9462 18.1021 75.9714 17.9572L76.8429 12.8572C76.8649 12.7329 76.8556 12.605 76.8157 12.4853C76.7758 12.3655 76.7065 12.2576 76.6143 12.1714L72.9571 8.64287C72.849 8.54015 72.7729 8.40826 72.7381 8.26318C72.7033 8.1181 72.7114 7.96604 72.7613 7.82544C72.8112 7.68484 72.9008 7.56172 73.0192 7.471C73.1376 7.38028 73.2798 7.32585 73.4286 7.3143L78.4429 6.57144C78.5694 6.55742 78.6901 6.51048 78.7929 6.43528C78.8956 6.36008 78.9769 6.25926 79.0286 6.14287L81.3 1.55716C81.3619 1.4236 81.4606 1.31052 81.5847 1.23128C81.7087 1.15203 81.8528 1.10992 82 1.10992C82.1472 1.10992 82.2913 1.15203 82.4153 1.23128C82.5394 1.31052 82.6381 1.4236 82.7 1.55716Z" fill="#F8FD0B" stroke="#F8FD0B" stroke-linecap="round" stroke-linejoin="round"/>
</g>
<g clip-path="url(#clip4_2_151)">
<path d="M106.7 1.55716L108.971 6.14287C109.023 6.25926 109.104 6.36008 109.207 6.43528C109.31 6.51048 109.431 6.55742 109.557 6.57144L114.571 7.3143C114.717 7.33296 114.853 7.39255 114.966 7.48609C115.079 7.57964 115.162 7.70329 115.207 7.8426C115.252 7.98192 115.257 8.13114 115.22 8.27284C115.183 8.41455 115.107 8.54289 115 8.64287L111.386 12.2286C111.293 12.3148 111.224 12.4226 111.184 12.5424C111.144 12.6622 111.135 12.79 111.157 12.9143L112.029 17.9572C112.054 18.1021 112.038 18.2511 111.983 18.3874C111.927 18.5237 111.835 18.6417 111.716 18.7281C111.597 18.8144 111.456 18.8656 111.309 18.8758C111.162 18.886 111.016 18.8548 110.886 18.7857L106.371 16.4C106.256 16.3433 106.129 16.3138 106 16.3138C105.871 16.3138 105.744 16.3433 105.629 16.4L101.114 18.7857C100.984 18.8548 100.838 18.886 100.691 18.8758C100.544 18.8656 100.403 18.8144 100.284 18.7281C100.165 18.6417 100.073 18.5237 100.017 18.3874C99.9621 18.2511 99.9462 18.1021 99.9714 17.9572L100.843 12.8572C100.865 12.7329 100.856 12.605 100.816 12.4853C100.776 12.3655 100.707 12.2576 100.614 12.1714L96.9571 8.64287C96.849 8.54015 96.7729 8.40826 96.7381 8.26318C96.7033 8.1181 96.7114 7.96604 96.7613 7.82544C96.8112 7.68484 96.9008 7.56172 97.0192 7.471C97.1376 7.38028 97.2798 7.32585 97.4286 7.3143L102.443 6.57144C102.569 6.55742 102.69 6.51048 102.793 6.43528C102.896 6.36008 102.977 6.25926 103.029 6.14287L105.3 1.55716C105.362 1.4236 105.461 1.31052 105.585 1.23128C105.709 1.15203 105.853 1.10992 106 1.10992C106.147 1.10992 106.291 1.15203 106.415 1.23128C106.539 1.31052 106.638 1.4236 106.7 1.55716Z" fill="#F8FD0B" stroke="#F8FD0B" stroke-linecap="round" stroke-linejoin="round"/>
</g>
<defs>
<clipPath id="clip0_2_151">
<rect width="20" height="20" fill="white"/>
</clipPath>
<clipPath id="clip1_2_151">
<rect width="20" height="20" fill="white" transform="translate(24)"/>
</clipPath>
<clipPath id="clip2_2_151">
<rect width="20" height="20" fill="white" transform="translate(48)"/>
</clipPath>
<clipPath id="clip3_2_151">
<rect width="20" height="20" fill="white" transform="translate(72)"/>
</clipPath>
<clipPath id="clip4_2_151">
<rect width="20" height="20" fill="white" transform="translate(96)"/>
</clipPath>
</defs>
</svg>
