<svg width="48" height="48" fill="none" xmlns="http://www.w3.org/2000/svg"><path d="M24 34c5.523 0 10-4.477 10-10s-4.477-10-10-10-10 4.477-10 10 4.477 10 10 10z" fill="#1575E5"/><path d="M21.022 6.53c.04-1.387.939-2.48 2.327-2.52a22.347 22.347 0 0 1 1.302 0c1.388.04 2.287 1.133 2.327 2.52a50.152 50.152 0 0 1 0 2.94c-.04 1.387-.939 2.48-2.327 2.52a22.452 22.452 0 0 1-1.302 0c-1.388-.04-2.287-1.133-2.327-2.52a50.152 50.152 0 0 1 0-2.94zM21.022 41.47c.04 1.387.939 2.48 2.327 2.52a22.452 22.452 0 0 0 1.302 0c1.388-.04 2.287-1.133 2.327-2.52a50.146 50.146 0 0 0 0-2.94c-.04-1.387-.939-2.48-2.327-2.52a22.452 22.452 0 0 0-1.302 0c-1.388.04-2.287 1.133-2.327 2.52a50.146 50.146 0 0 0 0 2.94zM6.53 26.978c-1.387-.04-2.48-.939-2.52-2.327a22.347 22.347 0 0 1 0-1.302c.04-1.388 1.133-2.287 2.52-2.327a50.152 50.152 0 0 1 2.94 0c1.387.04 2.48.939 2.52 2.327a22.452 22.452 0 0 1 0 1.302c-.04 1.388-1.133 2.287-2.52 2.327a50.152 50.152 0 0 1-2.94 0zM41.47 26.978c1.387-.04 2.48-.939 2.52-2.327a22.452 22.452 0 0 0 0-1.302c-.04-1.388-1.133-2.287-2.52-2.327a50.146 50.146 0 0 0-2.94 0c-1.387.04-2.48.939-2.52 2.327a22.452 22.452 0 0 0 0 1.302c.04 1.388 1.133 2.287 2.52 2.327a50.146 50.146 0 0 0 2.94 0zM9.541 13.754c-.952-1.011-1.09-2.42-.137-3.43a22.258 22.258 0 0 1 .92-.92c1.01-.953 2.419-.815 3.43.137a50.21 50.21 0 0 1 2.077 2.078c.953 1.01 1.09 2.419.138 3.429a22.225 22.225 0 0 1-.921.92c-1.01.954-2.418.816-3.429-.137a50.125 50.125 0 0 1-2.078-2.077zM34.246 38.459c1.011.952 2.42 1.09 3.43.137a22.225 22.225 0 0 0 .92-.92c.953-1.01.815-2.419-.137-3.43a50.37 50.37 0 0 0-2.078-2.077c-1.01-.953-2.419-1.09-3.429-.138a22.225 22.225 0 0 0-.92.921c-.953 1.01-.816 2.418.137 3.429a50.125 50.125 0 0 0 2.078 2.078zM13.754 38.459c-1.011.952-2.42 1.09-3.43.137a22.296 22.296 0 0 1-.92-.92c-.953-1.01-.815-2.419.137-3.43a50.21 50.21 0 0 1 2.078-2.077c1.01-.953 2.419-1.09 3.429-.138a22.225 22.225 0 0 1 .92.921c.954 1.01.816 2.418-.137 3.429a50.125 50.125 0 0 1-2.077 2.078zM38.459 13.754c.952-1.011 1.09-2.42.137-3.43a22.296 22.296 0 0 0-.92-.92c-1.01-.953-2.419-.815-3.43.137a50.21 50.21 0 0 0-2.077 2.078c-.953 1.01-1.09 2.419-.138 3.429a22.225 22.225 0 0 0 .921.92c1.01.954 2.418.816 3.429-.137a50.125 50.125 0 0 0 2.078-2.077z" fill="#A6CFFF"/></svg>