<svg width="46" height="46" fill="none" xmlns="http://www.w3.org/2000/svg"><path d="M23 45.286c12.308 0 22.286-9.978 22.286-22.286C45.286 10.692 35.308.714 23 .714 10.692.714.714 10.692.714 23c0 12.308 9.978 22.286 22.286 22.286z" fill="#A6CFFF" stroke="#A6CFFF" stroke-linecap="round" stroke-linejoin="round"/><g filter="url(#a)"><path d="M23 25a8 8 0 1 0 0-16 8 8 0 0 0 0 16z" fill="#1575E5"/><path d="M23 25a8 8 0 1 0 0-16 8 8 0 0 0 0 16z" stroke="#1575E5" stroke-linecap="round" stroke-linejoin="round"/></g><path d="M9.648 39a16.523 16.523 0 0 1 5.972-5.863A16.178 16.178 0 0 1 23.648 31c2.813 0 5.578.736 8.03 2.137A16.523 16.523 0 0 1 37.647 39" fill="#1575E5"/><path d="M9.648 39a16.523 16.523 0 0 1 5.972-5.863A16.178 16.178 0 0 1 23.648 31c2.813 0 5.578.736 8.03 2.137A16.523 16.523 0 0 1 37.647 39" stroke="#1575E5" stroke-linecap="round" stroke-linejoin="round"/><defs><filter id="a" x="10.5" y="8.5" width="25" height="25" filterUnits="userSpaceOnUse" color-interpolation-filters="sRGB"><feFlood flood-opacity="0" result="BackgroundImageFix"/><feColorMatrix in="SourceAlpha" values="0 0 0 0 0 0 0 0 0 0 0 0 0 0 0 0 0 0 127 0" result="hardAlpha"/><feOffset dy="4"/><feGaussianBlur stdDeviation="2"/><feComposite in2="hardAlpha" operator="out"/><feColorMatrix values="0 0 0 0 0 0 0 0 0 0 0 0 0 0 0 0 0 0 0.25 0"/><feBlend in2="BackgroundImageFix" result="effect1_dropShadow_59_61"/><feBlend in="SourceGraphic" in2="effect1_dropShadow_59_61" result="shape"/></filter></defs></svg>