<svg width="45" height="45" viewBox="0 0 45 45" fill="none" xmlns="http://www.w3.org/2000/svg">
<g clip-path="url(#clip0_2_437)">
<path d="M44.1037 11.5977C43.8493 10.6404 43.3479 9.76662 42.6497 9.06393C41.9515 8.36125 41.081 7.85427 40.1253 7.59373C36.6071 6.64771 22.5446 6.64771 22.5446 6.64771C22.5446 6.64771 8.48213 6.64771 4.96395 7.59373C4.00825 7.85427 3.13774 8.36125 2.43955 9.06393C1.74135 9.76662 1.23995 10.6404 0.985541 11.5977C0.0446321 15.1312 0.044632 22.5 0.044632 22.5C0.044632 22.5 0.0446321 29.8687 0.985541 33.4022C1.23995 34.3596 1.74135 35.2333 2.43955 35.936C3.13774 36.6387 4.00825 37.1457 4.96395 37.4062C8.48213 38.3522 22.5446 38.3522 22.5446 38.3522C22.5446 38.3522 36.6071 38.3522 40.1253 37.4062C41.081 37.1457 41.9515 36.6387 42.6497 35.936C43.3479 35.2333 43.8493 34.3596 44.1037 33.4022C45.0446 29.8687 45.0446 22.5 45.0446 22.5C45.0446 22.5 45.0446 15.1312 44.1037 11.5977Z" fill="#FF0302"/>
<path d="M17.9424 29.1912V15.8088L29.7037 22.5L17.9424 29.1912Z" fill="#FEFEFE"/>
</g>
<defs>
<clipPath id="clip0_2_437">
<rect width="45" height="45" fill="white"/>
</clipPath>
</defs>
</svg>
